<svg xmlns:xlink="http://www.w3.org/1999/xlink" xmlns="http://www.w3.org/2000/svg" fill="none" viewBox="0 0 203 104" width="203" height="104"><path fill="#F58617" d="M153.147 0c12.501 0 22.66 10.137 22.66 22.66 0 12.524-10.159 22.662-22.66 22.662-12.525 0-22.684-10.138-22.684-22.662 0-12.523 10.159-22.66 22.684-22.66"></path><path fill="#F0481D" d="M101.174 0c12.501 0 22.66 10.16 22.66 22.662 0 12.524-10.159 22.683-22.66 22.683-12.524 0-22.683-10.159-22.683-22.683C78.49 10.16 88.65 0 101.174 0"></path><path fill="#ED0B8B" d="M72.47 22.672c0 12.524-10.16 22.662-22.661 22.662-12.524 0-22.683-10.138-22.683-22.662 0-12.523 10.16-22.66 22.683-22.66 12.501 0 22.66 10.137 22.66 22.66zM75.491 59.532l.241.14C59.867 69.607 50.805 84.044 50.105 104H14.296C-.308 104-1.6 95.527 1.18 87.36 8.1 67.175 27.257 52.636 49.809 52.636c9.349 0 18.129 2.518 25.682 6.897z"></path><path fill="#8C198F" d="M101.174 104H49.808c0-19.004 10.335-35.6 25.683-44.468C90.84 68.4 101.174 84.996 101.174 104z"></path><path fill="#C21528" d="M152.538 104h-51.364c0-19.004 10.334-35.6 25.682-44.468C142.204 68.4 152.538 84.996 152.538 104z"></path><path fill="#F0481D" d="M126.846 59.536l.287.166C110.639 69.76 102.353 84.664 101.572 104h-.812c-.437-19.371-9.251-33.995-25.55-44.304l.276-.16c7.553-4.4 16.332-6.897 25.681-6.897a51.062 51.062 0 0125.679 6.897"></path><path fill="#F58617" d="M126.825 59.536l-.241.14c15.864 9.932 24.925 24.369 25.626 44.324h35.806c14.603 0 15.894-8.473 13.115-16.638-6.919-20.186-26.076-34.723-48.625-34.723a51.07 51.07 0 00-25.681 6.897"></path><path fill="#fff" d="M92.674 13.496h16.177v4.237h-5.72v13.17h-4.722v-13.17h-5.735v-4.237zM152.626 26.68l-4.844-6.095v10.318h-4.722V13.496h4.225l5.341 6.847 5.353-6.847h4.224v17.407h-4.722V20.585l-4.855 6.094zM50.991 26.06c0-.315-.15-.59-.45-.825-.298-.235-.685-.43-1.158-.583-.473-.154-1-.317-1.578-.492a12.554 12.554 0 01-1.724-.66 8.068 8.068 0 01-1.566-.96c-.473-.373-.86-.874-1.16-1.505-.298-.631-.448-1.36-.448-2.186 0-1.424.617-2.672 1.851-3.744s2.814-1.609 4.74-1.609c.793 0 1.542.088 2.246.262.704.174 1.28.383 1.73.625.448.242.844.483 1.183.722.34.239.575.451.704.638l.23.242-2.743 2.864c-.08-.096-.2-.22-.358-.37-.158-.15-.485-.353-.983-.612a3.24 3.24 0 00-1.512-.389c-.533 0-.978.15-1.335.45-.356.299-.533.646-.533 1.043 0 .316.15.59.448.82.3.23.687.425 1.16.582.473.158.995.325 1.566.499.57.174 1.145.393 1.724.66a7.876 7.876 0 011.577.96c.474.372.86.874 1.16 1.505.3.63.449 1.36.449 2.184 0 1.612-.635 2.966-1.906 4.067-1.27 1.1-2.958 1.651-5.062 1.651a9.867 9.867 0 01-2.482-.31c-.797-.206-1.453-.455-1.967-.746a13.77 13.77 0 01-1.365-.874c-.397-.292-.688-.542-.874-.752l-.267-.304 2.73-2.853c.033.048.092.113.177.195.085.08.25.23.498.448.247.219.507.412.783.577.275.166.619.315 1.031.443.413.13.825.194 1.239.194.663 0 1.203-.182 1.62-.545.417-.365.625-.802.625-1.312zM34.732 74.054v15.047H31.08V74.054h3.652M75.033 86.52c.442 0 .819-.17 1.133-.515.315-.342.473-.78.473-1.31v-.325l-1.606.325a1.34 1.34 0 00-.692.365c-.189.19-.284.39-.284.598.008.575.333.862.976.862zM80.29 89.1H76.64v-1.187c-.07.098-.177.229-.32.39-.143.16-.455.37-.934.623a3.229 3.229 0 01-1.537.383c-1.001 0-1.824-.29-2.47-.877-.649-.583-.971-1.29-.971-2.122 0-.861.278-1.579.839-2.154.559-.573 1.353-.968 2.38-1.183l3.013-.642c0-.287-.13-.537-.388-.755-.26-.216-.63-.325-1.113-.325-.413 0-.81.09-1.191.273-.381.183-.652.356-.813.525l-.252.282-1.825-1.93.167-.225c.071-.095.242-.257.514-.488.273-.23.567-.436.882-.613.315-.18.727-.344 1.238-.494a5.631 5.631 0 011.596-.226c1.405 0 2.563.412 3.473 1.237.91.828 1.363 1.817 1.363 2.97v6.538M125.599 82.233c-.409.437-.614.97-.614 1.6 0 .63.205 1.163.614 1.601.409.437.885.654 1.426.654.542 0 1.017-.217 1.428-.654.409-.438.614-.97.614-1.602 0-.628-.205-1.162-.614-1.599-.411-.438-.886-.656-1.428-.656-.541 0-1.017.218-1.426.656zm-.614-8.179v5.802c.027-.04.066-.094.115-.156.049-.064.168-.182.357-.353.19-.17.39-.325.604-.462.213-.137.49-.258.833-.367a3.699 3.699 0 011.102-.162c1.315 0 2.449.52 3.404 1.558.956 1.04 1.434 2.347 1.434 3.926 0 1.577-.478 2.884-1.434 3.918-.955 1.035-2.089 1.552-3.404 1.552a3.698 3.698 0 01-1.658-.372c-.503-.248-.853-.495-1.049-.739l-.304-.39v1.292h-3.652V74.054h3.652M177.212 79.972l-1.826 1.93c-.427-.426-.932-.644-1.512-.65-.301 0-.537.065-.707.194-.173.129-.258.281-.258.453 0 .17.15.317.451.439.301.122.67.255 1.107.398.437.143.871.32 1.302.53.43.21.795.538 1.096.981.3.446.451.988.451 1.632 0 .96-.404 1.77-1.213 2.435-.807.665-1.907.996-3.299.996-.616 0-1.203-.07-1.763-.209-.559-.139-1.01-.313-1.353-.513a10.457 10.457 0 01-.903-.595c-.257-.192-.436-.361-.535-.509l-.178-.209 1.836-1.931c.056.084.137.185.241.3.106.115.334.271.688.473.353.197.721.298 1.106.298.302 0 .537-.066.709-.194.172-.13.257-.28.257-.451 0-.172-.15-.318-.451-.44-.301-.125-.67-.257-1.106-.401a10.84 10.84 0 01-1.302-.523c-.431-.208-.795-.533-1.097-.977-.301-.444-.451-.988-.451-1.631 0-.959.406-1.77 1.217-2.44.811-.667 1.913-1.002 3.305-1.002.832 0 1.595.136 2.288.41.692.271 1.182.539 1.468.797l.432.409"></path></svg>